<svg xmlns="http://www.w3.org/2000/svg" xmlns:xlink="http://www.w3.org/1999/xlink" viewBox="0 0 204.03 36.76"><defs><style>.cls-1{fill:#fff;stroke:#fff;stroke-width:0.7px;}.cls-1,.cls-2,.cls-3,.cls-4,.cls-5{stroke-miterlimit:10;}.cls-2,.cls-3,.cls-4,.cls-5{stroke-width:1.39px;}.cls-2{fill:url(#名称未設定グラデーション_3);stroke:url(#名称未設定グラデーション_3-2);}.cls-3{fill:url(#名称未設定グラデーション_3-3);stroke:url(#名称未設定グラデーション_3-4);}.cls-4{fill:url(#名称未設定グラデーション_3-5);stroke:url(#名称未設定グラデーション_3-6);}.cls-5{fill:url(#名称未設定グラデーション_3-7);stroke:url(#名称未設定グラデーション_3-8);}</style><linearGradient id="名称未設定グラデーション_3" x1="10.67" y1="23.75" x2="34.8" y2="23.75" gradientUnits="userSpaceOnUse"><stop offset="0" stop-color="#676767"/><stop offset="1" stop-color="#9a9a9a"/></linearGradient><linearGradient id="名称未設定グラデーション_3-2" x1="9.97" y1="23.75" x2="35.5" y2="23.75" xlink:href="#名称未設定グラデーション_3"/><linearGradient id="名称未設定グラデーション_3-3" x1="22.04" y1="23.75" x2="46.17" y2="23.75" xlink:href="#名称未設定グラデーション_3"/><linearGradient id="名称未設定グラデーション_3-4" x1="21.34" y1="23.75" x2="46.87" y2="23.75" xlink:href="#名称未設定グラデーション_3"/><linearGradient id="名称未設定グラデーション_3-5" x1="1.17" y1="18.38" x2="21.61" y2="18.38" xlink:href="#名称未設定グラデーション_3"/><linearGradient id="名称未設定グラデーション_3-6" x1="0.47" y1="18.38" x2="22.31" y2="18.38" xlink:href="#名称未設定グラデーション_3"/><linearGradient id="名称未設定グラデーション_3-7" x1="0.7" y1="18.38" x2="22.08" y2="18.38" xlink:href="#名称未設定グラデーション_3"/><linearGradient id="名称未設定グラデーション_3-8" x1="0" y1="18.38" x2="22.78" y2="18.38" xlink:href="#名称未設定グラデーション_3"/></defs><title>q</title><g id="レイヤー_2" data-name="レイヤー 2"><g id="footer"><path class="cls-1" d="M64.38,3.89a19.42,19.42,0,0,1,3.17-.25,5.23,5.23,0,0,1,3.59,1.07,3.46,3.46,0,0,1,1.12,2.68,3.73,3.73,0,0,1-1,2.73,5.3,5.3,0,0,1-3.91,1.41A6,6,0,0,1,66,11.42v5.12H64.38ZM66,10.07a5.83,5.83,0,0,0,1.37.13c2,0,3.21-1,3.21-2.74s-1.2-2.5-3-2.5A6.75,6.75,0,0,0,66,5.09Z"/><path class="cls-1" d="M78.46,12.52l-1.33,4H75.42l4.35-12.8h2l4.37,12.8H84.36l-1.36-4Zm4.19-1.3L81.4,7.54c-.28-.84-.47-1.6-.66-2.34h0c-.19.76-.4,1.54-.65,2.32l-1.25,3.7Z"/><path class="cls-1" d="M99.24,16.13a8.29,8.29,0,0,1-3.38.6c-3.61,0-6.33-2.28-6.33-6.47a6.38,6.38,0,0,1,6.69-6.73,6.83,6.83,0,0,1,3,.57l-.4,1.35a6.09,6.09,0,0,0-2.58-.53c-3,0-5,1.92-5,5.28,0,3.13,1.81,5.15,4.92,5.15a6.69,6.69,0,0,0,2.7-.53Z"/><path class="cls-1" d="M105.63,3.74v12.8H104V3.74Z"/><path class="cls-1" d="M111.55,3.74h6.9V5.13h-5.24V9.38h4.84v1.37h-4.84v5.79h-1.66Z"/><path class="cls-1" d="M125.12,3.74v12.8h-1.65V3.74Z"/><path class="cls-1" d="M139.24,16.13a8.35,8.35,0,0,1-3.39.6c-3.61,0-6.32-2.28-6.32-6.47a6.37,6.37,0,0,1,6.68-6.73,6.79,6.79,0,0,1,3,.57l-.39,1.35a6.1,6.1,0,0,0-2.59-.53c-3,0-5,1.92-5,5.28,0,3.13,1.8,5.15,4.92,5.15a6.63,6.63,0,0,0,2.69-.53Z"/><path class="cls-1" d="M158.79,10.92c-.1-1.79-.21-3.93-.19-5.53h-.06c-.44,1.5-1,3.1-1.62,4.87l-2.26,6.21h-1.25l-2.07-6.1c-.61-1.8-1.12-3.46-1.48-5h0c0,1.6-.13,3.74-.25,5.66l-.34,5.49h-1.58l.9-12.8h2.1l2.19,6.19c.53,1.58,1,3,1.29,4.32h.06c.32-1.3.78-2.7,1.35-4.32l2.28-6.19h2.11l.79,12.8h-1.61Z"/><path class="cls-1" d="M167.62,12.52l-1.33,4h-1.71l4.35-12.8h2l4.37,12.8h-1.77l-1.37-4Zm4.2-1.3-1.25-3.68c-.29-.84-.48-1.6-.67-2.34h0c-.19.76-.4,1.54-.64,2.32L168,11.22Z"/><path class="cls-1" d="M179.46,3.74h1.65V15.16h5.47v1.38h-7.12Z"/><path class="cls-1" d="M191.47,3.74h1.65V15.16h5.47v1.38h-7.12Z"/><path class="cls-1" d="M64.56,25.31a17.61,17.61,0,0,1,2.59-.2A5.39,5.39,0,0,1,71,26.29a4.34,4.34,0,0,1,1.33,3.39A5,5,0,0,1,71,33.35a5.85,5.85,0,0,1-4.18,1.36,19.31,19.31,0,0,1-2.21-.12Zm1.22,8.35a8.33,8.33,0,0,0,1.23.07c2.6,0,4-1.46,4-4,0-2.23-1.25-3.64-3.82-3.64a7,7,0,0,0-1.43.12Z"/><path class="cls-1" d="M83.31,30.2H79.64v3.4h4.09v1H78.42V25.18h5.1v1H79.64v3h3.67Z"/><path class="cls-1" d="M92.47,34.62l-3.08-9.44h1.32l1.47,4.65c.41,1.28.76,2.42,1,3.53h0c.26-1.09.66-2.28,1.08-3.51l1.59-4.67H97.2l-3.38,9.44Z"/><path class="cls-1" d="M108.48,30.2h-3.67v3.4h4.09v1h-5.31V25.18h5.1v1h-3.88v3h3.67Z"/><path class="cls-1" d="M115.57,25.18h1.22V33.6h4v1h-5.26Z"/><path class="cls-1" d="M135.07,29.8c0,3.25-2,5-4.39,5s-4.24-1.94-4.24-4.79,1.86-5,4.38-5S135.07,27,135.07,29.8Zm-7.33.16c0,2,1.09,3.82,3,3.82s3-1.78,3-3.92c0-1.88-1-3.84-3-3.84S127.74,27.88,127.74,30Z"/><path class="cls-1" d="M141.74,25.29a15.14,15.14,0,0,1,2.34-.18,3.86,3.86,0,0,1,2.65.79,2.54,2.54,0,0,1,.82,2,2.78,2.78,0,0,1-.73,2,3.91,3.91,0,0,1-2.88,1,4.18,4.18,0,0,1-1-.08v3.78h-1.22ZM143,29.85a4.1,4.1,0,0,0,1,.09c1.47,0,2.36-.71,2.36-2s-.88-1.85-2.22-1.85a4.82,4.82,0,0,0-1.15.1Z"/><path class="cls-1" d="M162.24,30.48c-.07-1.32-.16-2.9-.14-4.08h0c-.33,1.11-.72,2.28-1.19,3.59l-1.67,4.58h-.93l-1.52-4.5c-.45-1.33-.83-2.55-1.09-3.67h0c0,1.18-.1,2.76-.18,4.17l-.26,4H154l.66-9.44h1.55l1.61,4.57c.4,1.16.72,2.2,1,3.18h0c.24-1,.57-2,1-3.18l1.68-4.57h1.56l.59,9.44h-1.19Z"/><path class="cls-1" d="M176.08,30.2h-3.67v3.4h4.09v1h-5.31V25.18h5.1v1h-3.88v3h3.67Z"/><path class="cls-1" d="M183.46,34.62V25.18h1.33l3,4.78a24.92,24.92,0,0,1,1.7,3.07l0,0c-.11-1.26-.14-2.41-.14-3.88V25.18h1.15v9.44h-1.24l-3-4.79a30.61,30.61,0,0,1-1.77-3.15h0c.07,1.19.1,2.33.1,3.9v4Z"/><path class="cls-1" d="M199.56,26.22h-2.87v-1h7v1h-2.89v8.4h-1.23Z"/><path class="cls-2" d="M12.46,36.07H11.14a.46.46,0,0,1-.43-.29.48.48,0,0,1,.08-.51L32.36,11.79a1.11,1.11,0,0,1,.81-.36h.53a1.11,1.11,0,0,1,1.1,1.11V35.28a.47.47,0,0,1-.47.47H33.07a.48.48,0,0,1-.48-.47V14.79a.06.06,0,0,1,0,0,.1.1,0,0,0-.06-.1.13.13,0,0,0-.17,0L12.81,35.91A.48.48,0,0,1,12.46,36.07Z"/><path class="cls-3" d="M23.83,36.07H22.51a.46.46,0,0,1-.43-.29.48.48,0,0,1,.08-.51L43.73,11.79a1.09,1.09,0,0,1,.81-.36h.53a1.11,1.11,0,0,1,1.1,1.11V35.28a.47.47,0,0,1-.47.47H44.44a.47.47,0,0,1-.48-.47V14.75a.08.08,0,0,0-.05-.1.13.13,0,0,0-.17,0L24.18,35.91A.48.48,0,0,1,23.83,36.07Z"/><path class="cls-4" d="M10.84,1.17A8.74,8.74,0,0,1,14,1.75,12.33,12.33,0,0,1,16.8,3.23a10.51,10.51,0,0,1,2.94,2.93A11.25,11.25,0,0,1,21.3,9.74a11.84,11.84,0,0,1-.75,7.57,12.07,12.07,0,0,1-2.19,3.25A10.56,10.56,0,0,1,15,22.94a11.88,11.88,0,0,1-2.27.84,6.7,6.7,0,0,1-2.41.19V22.88a11.86,11.86,0,0,0,5.72-1.81,10.9,10.9,0,0,0,3.89-4.57A6.84,6.84,0,0,0,20.68,14a16,16,0,0,0,.05-2.69,7.92,7.92,0,0,0-.94-3.23,12.05,12.05,0,0,0-2.17-3,11.14,11.14,0,0,0-3-2.15,7.29,7.29,0,0,0-3.27-.82H2.75V35.59H1.17V1.17Z"/><path class="cls-5" d="M2.75,36.07H1.17a.47.47,0,0,1-.47-.48V1.17A.47.47,0,0,1,1.17.7h9.67a9.46,9.46,0,0,1,3.32.6,13.31,13.31,0,0,1,2.92,1.54A11.14,11.14,0,0,1,20.14,5.9,11.76,11.76,0,0,1,22,13.62a12.13,12.13,0,0,1-1,3.88,12.47,12.47,0,0,1-2.28,3.39,11.06,11.06,0,0,1-3.49,2.48,12.08,12.08,0,0,1-2.36.87,7.35,7.35,0,0,1-2.57.2A.48.48,0,0,1,9.85,24V22.88a.47.47,0,0,1,.45-.47,11.38,11.38,0,0,0,5.49-1.74,10.59,10.59,0,0,0,3.73-4.37,6.73,6.73,0,0,0,.69-2.36,15.22,15.22,0,0,0,0-2.62,7.45,7.45,0,0,0-.88-3,11.8,11.8,0,0,0-2.09-2.86,10.79,10.79,0,0,0-2.85-2.06,6.93,6.93,0,0,0-3.06-.77H3.22v33A.47.47,0,0,1,2.75,36.07Z"/></g></g></svg>