<svg xmlns="http://www.w3.org/2000/svg" viewBox="0 0 240.22 42.98" width="240" height="43"><defs><style>.cls-1,.cls-2{fill:#fff;}.cls-1{stroke:#fff;stroke-miterlimit:10;stroke-width:0.81px;}</style></defs><title>アセット 1</title><g id="レイヤー_2" data-name="レイヤー 2"><g id="header"><path class="cls-1" d="M73.13,5.22a22.73,22.73,0,0,1,3.79-.3,6.29,6.29,0,0,1,4.29,1.27A4.13,4.13,0,0,1,82.55,9.4a4.49,4.49,0,0,1-1.18,3.27,6.33,6.33,0,0,1-4.67,1.68,7,7,0,0,1-1.59-.14v6.13h-2Zm2,7.38a6.73,6.73,0,0,0,1.63.16c2.39,0,3.84-1.16,3.84-3.27s-1.43-3-3.61-3a8.32,8.32,0,0,0-1.86.16Z"/><path class="cls-1" d="M90,15.53l-1.59,4.81h-2L91.52,5H93.9l5.23,15.3H97l-1.63-4.81ZM95,14l-1.5-4.4c-.34-1-.57-1.91-.79-2.79h-.05c-.22.9-.47,1.83-.77,2.77L90.36,14Z"/><path class="cls-1" d="M114.79,19.84a9.86,9.86,0,0,1-4,.73c-4.32,0-7.56-2.73-7.56-7.75a7.61,7.61,0,0,1,8-8,8.21,8.21,0,0,1,3.63.68l-.48,1.61a7.17,7.17,0,0,0-3.08-.64c-3.59,0-6,2.3-6,6.32,0,3.74,2.15,6.15,5.88,6.15a7.81,7.81,0,0,0,3.22-.64Z"/><path class="cls-1" d="M122.41,5v15.3h-2V5Z"/><path class="cls-1" d="M129.5,5h8.24V6.69h-6.27v5.09h5.79v1.64h-5.79v6.92h-2Z"/><path class="cls-1" d="M145.7,5v15.3h-2V5Z"/><path class="cls-1" d="M162.57,19.84a9.86,9.86,0,0,1-4,.73c-4.31,0-7.56-2.73-7.56-7.75a7.61,7.61,0,0,1,8-8,8.21,8.21,0,0,1,3.63.68l-.47,1.61A7.26,7.26,0,0,0,159,6.44c-3.59,0-6,2.3-6,6.32,0,3.74,2.15,6.15,5.88,6.15a7.81,7.81,0,0,0,3.22-.64Z"/><path class="cls-1" d="M185.93,13.62c-.11-2.13-.25-4.7-.23-6.61h-.07c-.52,1.8-1.15,3.7-1.93,5.81L181,20.25h-1.5L177,13c-.73-2.16-1.34-4.13-1.77-6h0c0,1.91-.16,4.48-.29,6.77l-.41,6.56h-1.89L173.69,5h2.52l2.61,7.4c.64,1.88,1.16,3.56,1.55,5.15h.06c.39-1.54.94-3.22,1.62-5.15L184.77,5h2.52l1,15.3h-1.93Z"/><path class="cls-1" d="M196.48,15.53l-1.59,4.81h-2L198.05,5h2.38l5.23,15.3h-2.12l-1.63-4.81Zm5-1.55L200,9.58c-.34-1-.57-1.91-.79-2.79h-.05c-.23.9-.48,1.83-.77,2.77L196.89,14Z"/><path class="cls-1" d="M210.62,5h2V18.68h6.54v1.66h-8.52Z"/><path class="cls-1" d="M225,5h2V18.68h6.53v1.66H225Z"/><path class="cls-1" d="M72.64,30.17a20.28,20.28,0,0,1,3-.23,6.29,6.29,0,0,1,4.44,1.36,5.06,5.06,0,0,1,1.55,3.94,5.82,5.82,0,0,1-1.58,4.26,6.73,6.73,0,0,1-4.85,1.58A23.2,23.2,0,0,1,72.64,41Zm1.42,9.69a9.62,9.62,0,0,0,1.43.08c3,0,4.67-1.69,4.67-4.65,0-2.59-1.45-4.23-4.44-4.23a7.36,7.36,0,0,0-1.66.15Z"/><path class="cls-1" d="M94.55,35.84H90.29v3.95H95V41H88.88V30H94.8v1.19H90.29v3.46h4.26Z"/><path class="cls-1" d="M105.66,41l-3.58-11h1.53l1.71,5.4c.47,1.48.88,2.81,1.17,4.1h0c.31-1.27.77-2.65,1.26-4.08L109.63,30h1.51l-3.92,11Z"/><path class="cls-1" d="M124.39,35.84h-4.27v3.95h4.75V41h-6.16V30h5.92v1.19h-4.51v3.46h4.27Z"/><path class="cls-1" d="M134.06,30h1.42v9.77h4.68V41h-6.1Z"/><path class="cls-1" d="M156.84,35.39c0,3.77-2.3,5.77-5.09,5.77s-4.93-2.24-4.93-5.56c0-3.48,2.16-5.76,5.09-5.76S156.84,32.13,156.84,35.39Zm-8.51.18c0,2.34,1.27,4.44,3.5,4.44s3.51-2.07,3.51-4.56c0-2.18-1.14-4.46-3.5-4.46S148.33,33.16,148.33,35.57Z"/><path class="cls-1" d="M165.05,30.15a16.87,16.87,0,0,1,2.72-.21,4.47,4.47,0,0,1,3.07.91,3,3,0,0,1,1,2.29,3.24,3.24,0,0,1-.84,2.34,4.54,4.54,0,0,1-3.35,1.21,4.88,4.88,0,0,1-1.14-.1V41h-1.42Zm1.42,5.29a4.84,4.84,0,0,0,1.17.11c1.71,0,2.75-.83,2.75-2.34s-1-2.15-2.59-2.15a6.25,6.25,0,0,0-1.33.11Z"/><path class="cls-1" d="M189.32,36.17c-.08-1.53-.18-3.37-.16-4.74h0c-.37,1.29-.83,2.66-1.38,4.17l-1.94,5.32h-1.07l-1.78-5.22c-.52-1.55-1-3-1.26-4.27h0c0,1.37-.11,3.21-.21,4.85l-.29,4.7h-1.35l.76-11h1.81l1.87,5.3c.46,1.35.83,2.56,1.11,3.69h0c.28-1.1.67-2.31,1.16-3.69l2-5.3h1.81L191,41H189.6Z"/><path class="cls-1" d="M205.86,35.84H201.6v3.95h4.75V41h-6.16V30h5.92v1.19H201.6v3.46h4.26Z"/><path class="cls-1" d="M214.89,41V30h1.55L220,35.57a31.25,31.25,0,0,1,2,3.56l0,0c-.13-1.46-.16-2.8-.16-4.5V30h1.33V41h-1.43l-3.48-5.56a34.81,34.81,0,0,1-2.05-3.66l0,0c.08,1.38.12,2.7.12,4.52V41Z"/><path class="cls-1" d="M235,31.22h-3.34V30h8.12v1.2h-3.35V41H235Z"/><path class="cls-2" d="M14.57,43H13a1.36,1.36,0,0,1-1-2.29L37.23,13.23a2.12,2.12,0,0,1,1.55-.68h.62a2.11,2.11,0,0,1,2.1,2.11V41.24a1.37,1.37,0,0,1-1.37,1.37H38.66a1.37,1.37,0,0,1-1.37-1.37V19L15.57,42.54A1.36,1.36,0,0,1,14.57,43ZM37.3,17.17v0Z"/><path class="cls-2" d="M27.86,43H26.32a1.37,1.37,0,0,1-1-2.29L50.52,13.23a2.14,2.14,0,0,1,1.55-.68h.62a2.11,2.11,0,0,1,2.1,2.11V41.24a1.37,1.37,0,0,1-1.37,1.37H52a1.37,1.37,0,0,1-1.37-1.37V19L28.86,42.54A1.35,1.35,0,0,1,27.86,43Zm-.19-1.54ZM50.59,17.15Z"/><path class="cls-2" d="M3.21,43H1.37A1.37,1.37,0,0,1,0,41.61V1.37A1.37,1.37,0,0,1,1.37,0h11.3a11.71,11.71,0,0,1,4.17.77,15.7,15.7,0,0,1,3.59,1.88,13.47,13.47,0,0,1,3.79,3.81,14.61,14.61,0,0,1,2,4.61A15.15,15.15,0,0,1,26.56,16a15.21,15.21,0,0,1-4.1,9,13.76,13.76,0,0,1-4.34,3.09,13.79,13.79,0,0,1-2.89,1.06,9.2,9.2,0,0,1-3.31.26A1.36,1.36,0,0,1,10.71,28V26.75A1.37,1.37,0,0,1,12,25.38a12.42,12.42,0,0,0,6-1.9,11.44,11.44,0,0,0,4.06-4.78,6.86,6.86,0,0,0,.74-2.49,18.85,18.85,0,0,0,.05-2.92,8,8,0,0,0-.95-3.24,12.68,12.68,0,0,0-2.3-3.14A11.64,11.64,0,0,0,16.5,4.66a7.24,7.24,0,0,0-3.2-.82H4.58V41.61A1.37,1.37,0,0,1,3.21,43Z"/></g></g></svg>