<svg xmlns="http://www.w3.org/2000/svg" xmlns:xlink="http://www.w3.org/1999/xlink" viewBox="0 0 239.93 42.98" width="240" height="43"><defs><style>.cls-1{fill:#343434;stroke:#343434;stroke-miterlimit:10;stroke-width:0.81px;}.cls-2{fill:url(#名称未設定グラデーション_10);}.cls-3{fill:url(#名称未設定グラデーション_10-2);}.cls-4{fill:url(#名称未設定グラデーション_10-3);}</style><linearGradient id="名称未設定グラデーション_10" x1="11.66" y1="27.77" x2="41.5" y2="27.77" gradientUnits="userSpaceOnUse"><stop offset="0" stop-color="#127dd6"/><stop offset="0.99" stop-color="#4ec9e5"/></linearGradient><linearGradient id="名称未設定グラデーション_10-2" x1="24.95" y1="27.77" x2="54.79" y2="27.77" xlink:href="#名称未設定グラデーション_10"/><linearGradient id="名称未設定グラデーション_10-3" x1="0" y1="21.49" x2="26.63" y2="21.49" xlink:href="#名称未設定グラデーション_10"/></defs><title>アセット 2</title><g id="レイヤー_2" data-name="レイヤー 2"><g id="header"><path class="cls-1" d="M72.85,5.22a22.63,22.63,0,0,1,3.79-.3,6.33,6.33,0,0,1,4.29,1.27A4.13,4.13,0,0,1,82.27,9.4a4.53,4.53,0,0,1-1.18,3.27,6.37,6.37,0,0,1-4.68,1.68,7,7,0,0,1-1.59-.14v6.13h-2Zm2,7.38a6.82,6.82,0,0,0,1.64.16c2.38,0,3.83-1.16,3.83-3.27s-1.43-3-3.61-3a8.32,8.32,0,0,0-1.86.16Z"/><path class="cls-1" d="M89.67,15.53l-1.59,4.81H86L91.24,5h2.38l5.22,15.3H96.73l-1.64-4.81Zm5-1.55-1.5-4.4c-.34-1-.57-1.91-.8-2.79h0c-.23.9-.48,1.83-.77,2.77L90.08,14Z"/><path class="cls-1" d="M114.5,19.84a9.79,9.79,0,0,1-4,.73c-4.31,0-7.56-2.73-7.56-7.75a7.61,7.61,0,0,1,8-8,8.3,8.3,0,0,1,3.64.68l-.48,1.61A7.26,7.26,0,0,0,111,6.44c-3.58,0-6,2.3-6,6.32,0,3.74,2.16,6.15,5.88,6.15a7.86,7.86,0,0,0,3.23-.64Z"/><path class="cls-1" d="M122.13,5v15.3h-2V5Z"/><path class="cls-1" d="M129.21,5h8.24V6.69h-6.26v5.09H137v1.64h-5.79v6.92h-2Z"/><path class="cls-1" d="M145.42,5v15.3h-2V5Z"/><path class="cls-1" d="M162.29,19.84a9.86,9.86,0,0,1-4,.73c-4.32,0-7.57-2.73-7.57-7.75a7.61,7.61,0,0,1,8-8,8.25,8.25,0,0,1,3.63.68l-.48,1.61a7.21,7.21,0,0,0-3.08-.64c-3.59,0-6,2.3-6,6.32,0,3.74,2.16,6.15,5.88,6.15a7.86,7.86,0,0,0,3.23-.64Z"/><path class="cls-1" d="M185.65,13.62c-.12-2.13-.25-4.7-.23-6.61h-.07c-.52,1.8-1.16,3.7-1.93,5.81l-2.7,7.43h-1.5L176.75,13C176,10.8,175.41,8.83,175,7h0c-.05,1.91-.16,4.48-.3,6.77l-.41,6.56h-1.88L173.41,5h2.52l2.61,7.4c.63,1.88,1.16,3.56,1.54,5.15h.07c.39-1.54.93-3.22,1.61-5.15L184.49,5H187l1,15.3H186Z"/><path class="cls-1" d="M196.2,15.53l-1.59,4.81h-2L197.76,5h2.39l5.22,15.3h-2.11l-1.64-4.81Zm5-1.55-1.5-4.4c-.34-1-.57-1.91-.8-2.79h0c-.23.9-.48,1.83-.77,2.77L196.61,14Z"/><path class="cls-1" d="M210.34,5h2V18.68h6.53v1.66h-8.51Z"/><path class="cls-1" d="M224.69,5h2V18.68h6.54v1.66h-8.51Z"/><path class="cls-1" d="M72.36,30.17a20.28,20.28,0,0,1,3-.23,6.3,6.3,0,0,1,4.44,1.36,5.09,5.09,0,0,1,1.54,3.94,5.81,5.81,0,0,1-1.57,4.26,6.75,6.75,0,0,1-4.85,1.58A23.07,23.07,0,0,1,72.36,41Zm1.41,9.69a9.62,9.62,0,0,0,1.43.08c3,0,4.67-1.69,4.67-4.65,0-2.59-1.45-4.23-4.44-4.23a7.49,7.49,0,0,0-1.66.15Z"/><path class="cls-1" d="M94.27,35.84H90v3.95h4.75V41H88.59V30h5.92v1.19H90v3.46h4.26Z"/><path class="cls-1" d="M105.38,41,101.8,30h1.53l1.71,5.4c.47,1.48.88,2.81,1.17,4.1h0c.31-1.27.76-2.65,1.25-4.08L109.35,30h1.51l-3.92,11Z"/><path class="cls-1" d="M124.1,35.84h-4.26v3.95h4.75V41h-6.17V30h5.92v1.19h-4.5v3.46h4.26Z"/><path class="cls-1" d="M133.78,30h1.41v9.77h4.69V41h-6.1Z"/><path class="cls-1" d="M156.55,35.39c0,3.77-2.29,5.77-5.09,5.77s-4.93-2.24-4.93-5.56c0-3.48,2.17-5.76,5.09-5.76S156.55,32.13,156.55,35.39Zm-8.5.18c0,2.34,1.26,4.44,3.49,4.44s3.52-2.07,3.52-4.56c0-2.18-1.14-4.46-3.5-4.46S148.05,33.16,148.05,35.57Z"/><path class="cls-1" d="M164.77,30.15a16.73,16.73,0,0,1,2.71-.21,4.49,4.49,0,0,1,3.08.91,3,3,0,0,1,1,2.29,3.2,3.2,0,0,1-.85,2.34,4.54,4.54,0,0,1-3.35,1.21,5,5,0,0,1-1.14-.1V41h-1.41Zm1.41,5.29a4.84,4.84,0,0,0,1.17.11c1.71,0,2.75-.83,2.75-2.34s-1-2.15-2.58-2.15a6.43,6.43,0,0,0-1.34.11Z"/><path class="cls-1" d="M189,36.17c-.08-1.53-.18-3.37-.17-4.74h0c-.38,1.29-.83,2.66-1.39,4.17l-1.93,5.32h-1.08l-1.77-5.22c-.52-1.55-1-3-1.27-4.27h0c0,1.37-.11,3.21-.21,4.85l-.3,4.7H179.5l.77-11h1.81l1.87,5.3c.45,1.35.82,2.56,1.1,3.69h0c.28-1.1.67-2.31,1.15-3.69l2-5.3H190l.69,11h-1.39Z"/><path class="cls-1" d="M205.58,35.84h-4.26v3.95h4.75V41H199.9V30h5.92v1.19h-4.5v3.46h4.26Z"/><path class="cls-1" d="M214.61,41V30h1.54l3.52,5.55a31.07,31.07,0,0,1,2,3.56l0,0c-.13-1.46-.17-2.8-.17-4.5V30h1.34V41h-1.43l-3.48-5.56a33.1,33.1,0,0,1-2.05-3.66l0,0c.08,1.38.11,2.7.11,4.52V41Z"/><path class="cls-1" d="M234.75,31.22h-3.34V30h8.12v1.2h-3.35V41h-1.43Z"/><path class="cls-2" d="M14.57,43H13a1.36,1.36,0,0,1-1-2.29L37.23,13.23a2.12,2.12,0,0,1,1.55-.68h.62a2.11,2.11,0,0,1,2.1,2.11V41.24a1.37,1.37,0,0,1-1.37,1.37H38.66a1.37,1.37,0,0,1-1.37-1.37V19L15.57,42.54A1.36,1.36,0,0,1,14.57,43ZM37.3,17.17v0Z"/><path class="cls-3" d="M27.86,43H26.32a1.37,1.37,0,0,1-1-2.29L50.52,13.23a2.14,2.14,0,0,1,1.55-.68h.62a2.11,2.11,0,0,1,2.1,2.11V41.24a1.37,1.37,0,0,1-1.37,1.37H52a1.37,1.37,0,0,1-1.37-1.37V19L28.86,42.54A1.35,1.35,0,0,1,27.86,43Zm-.19-1.54ZM50.59,17.15Z"/><path class="cls-4" d="M3.21,43H1.37A1.37,1.37,0,0,1,0,41.61V1.37A1.37,1.37,0,0,1,1.37,0h11.3a11.71,11.71,0,0,1,4.17.77,15.7,15.7,0,0,1,3.59,1.88,13.47,13.47,0,0,1,3.79,3.81,14.61,14.61,0,0,1,2,4.61A15.15,15.15,0,0,1,26.56,16a15.21,15.21,0,0,1-4.1,9,13.76,13.76,0,0,1-4.34,3.09,13.79,13.79,0,0,1-2.89,1.06,9.2,9.2,0,0,1-3.31.26A1.36,1.36,0,0,1,10.71,28V26.75A1.37,1.37,0,0,1,12,25.38a12.42,12.42,0,0,0,6-1.9,11.44,11.44,0,0,0,4.06-4.78,6.86,6.86,0,0,0,.74-2.49,18.85,18.85,0,0,0,.05-2.92,8,8,0,0,0-.95-3.24,12.68,12.68,0,0,0-2.3-3.14A11.64,11.64,0,0,0,16.5,4.66a7.24,7.24,0,0,0-3.2-.82H4.58V41.61A1.37,1.37,0,0,1,3.21,43Z"/></g></g></svg>